# xmcd
#
# Track frame offsets:
#	508
#	18113
#	38703
#	62210
#	88803
#	108509
#	128737
#
# Disc length: 1884 seconds
#
# Revision: 1
# Processed by: cddbd v1.5.2PL0 Copyright (c) Steve Scherf et al.
# Submitted via: audiograbber 1.81.03
#
DISCID=58075607
DTITLE=Derek`Miller - The`Return Of Doghouse Wryly
DYEAR=2006
DGENRE=Blues
TTITLE0=She Dreams In Colour
TTITLE1=Jack Roosevelt Robinson
TTITLE2=Crossword Puzzl4
TTITLE3=Coming To Pass
TTITLE4=I'm Throwing Out Something Everyday
TTITLE5=Ghosts
TTITLE6=Dorian
EXTD=
EXTT0=
EXTT1=
EXTT2=
EXTT3=
EXTT4=
EXTT5=
EXTT6=
PLAYORDER=
